<svg id="svg-delivery" viewBox="0 0 250 250" fill="none" xmlns="http://www.w3.org/2000/svg">
<path d="M106.3 37.7C126.1 37.7 145.9 37.7 165.8 37.7C173.8 37.7 177.2 41.5 176.4 49.5C175.7 56.7 174.9 63.9 174 71.1C173.7 73.5 174.4 73.9 176.5 73.8C191 73.7 205.5 73.8 220.1 73.7C225.1 73.7 228.3 75.7 230.3 80.4C236.5 94.7 242.7 108.9 249 123.2C250 125.5 250.3 127.8 250 130.3C247.8 149.9 245.6 169.5 243.6 189.1C242.7 197.4 240 200.1 231.6 200.1C227.3 200.1 223 200.2 218.8 200.1C217.1 200 216.3 200.6 215.5 202.2C211.4 210.7 204.7 216 195.5 217.7C183.9 219.9 173.4 213.7 169.4 202.5C168.7 200.7 168 200.1 166.1 200.1C145 200.2 123.8 200.2 102.7 200.1C101 200.1 100.1 200.6 99.4 202.2C93.9 213.7 81.5 220.2 70 217.6C61.8 215.7 56.2 210.5 53.3 202.5C52.6 200.7 51.9 200.1 50 200.1C42.6 200.2 35.3 200.2 27.9 200.1C22 200.1 18 196.3 18.1 190.9C18.2 185.7 22.2 182.1 27.9 182C30.6 182 33.3 182.1 36 182C41 181.8 44.9 177.9 44.9 173C44.9 168.1 41 164.1 36 164C30.3 163.9 24.6 164 19 164C13.3 164 9.20003 160.3 9.20003 155.1C9.10003 149.7 13.2 146 19.1 146C42.4 146 65.6 146 88.9 146C95.9 146 100.5 139.7 97.9 133.6C96.3 129.8 93.3 127.9 89.1 127.9C77.5 127.9 65.8 128 54.2 127.9C47.2 127.9 42.9 121 46 114.9C47.8 111.4 50.8 109.9 54.7 109.9C70.2 109.9 85.8 109.9 101.3 109.9C106 109.9 110.6 109.9 115.3 109.9C121.4 109.9 125.5 106.2 125.5 100.8C125.5 95.5 121.4 91.9 115.4 91.9C86.6 91.9 57.9 91.9 29.1 91.9C27.8 91.9 26.5 91.9 25.2 91.7C20.7 90.7 17.7 86.3 18.3 81.8C18.9 77.3 22.6 73.9 27.4 73.9C45 73.9 62.6 73.9 80.2 73.9C83.3 73.9 86.3 73.9 89.4 73.9C94.8 73.8 98.8 69.9 98.7 64.8C98.6 59.8 94.7 55.9 89.4 55.9C74.8 55.9 60.2 55.9 45.6 55.9C38.4 55.9 34 49 37.2 42.8C39 39.3 42 37.8 45.9 37.8C65.2 37.8 84.4 37.8 103.7 37.8C104.3 37.7 105.3 37.7 106.3 37.7ZM210.3 137C216.5 137 222.8 137 229 137C229.8 137 231 137.5 231.2 136.5C231.7 133.8 233 131 231.8 128.3C226.7 116.7 221.5 105.2 216.4 93.7C215.9 92.5 215.3 92 213.9 92C207.6 92.1 201.3 91.9 194.9 92.1C189.9 92.2 186.5 95.3 185.9 100.3C184.9 109.1 183.9 117.8 183 126.6C182.3 132.8 186.2 137.1 192.4 137.1C198.4 137 204.3 137 210.3 137ZM84.6 189.2C84.7 184.8 81.8 181.6 78.2 182.2C72.6 183.1 68.3 189.2 69.3 194.9C70.1 199.2 73.3 201.1 77.3 199.6C81.6 198 84.5 193.9 84.6 189.2ZM185.4 193.4C185.4 197.6 188.1 200.6 191.5 200.1C197.5 199.4 202.1 192.4 200.4 186.5C199.3 182.8 196.4 181.3 192.9 182.6C188.3 184.3 185.3 188.5 185.4 193.4Z" fill="currentColor"/>
<path d="M13.4001 128C11.8001 128 10.2001 128.1 8.7001 128C3.9001 127.8 0.100098 123.8 0.100098 119C0.100098 114.2 3.8001 110.2 8.6001 110C11.9001 109.9 15.1001 109.9 18.4001 110C23.2001 110.2 26.9001 114.3 26.9001 119.1C26.9001 123.8 23.2001 127.7 18.5001 128C16.7001 128 15.1001 127.9 13.4001 128Z" fill="currentColor"/>
</svg>
