<svg id="svg-email" viewBox="0 0 250 250" fill="none" xmlns="http://www.w3.org/2000/svg">
<path d="M161.1 77C161.7 71.8 164.2 67.9 169.2 66C176.9 63.2 185.2 68.8 185.3 77.1C185.4 85.2 185.3 93.3 185.3 101.4C185.3 118.2 185.3 135 185.3 151.8C185.3 159.4 190.1 166 197.2 168.5C204.4 171.1 212.2 169 217.1 163.3C218.6 161.5 219.7 159.4 220.4 157.2C239.1 102.1 206 41.9 149.3 28.1C92.7 14.3 36.9 50.2 26 107.5C15.9 160.8 52 213.7 105.6 223.8C130.6 228.5 154.1 224.4 176.1 211.8C183.1 207.8 190.9 209.9 194 216.6C196.7 222.4 194.6 228.8 188.7 232.3C177.3 239.1 165.2 243.9 152.2 246.7C84.3 261.6 17.7 219 2.9 151.2C-12 83.3 32.3 16 100.7 2.59999C169 -10.7 235 34 247.7 102.1C251.8 124.3 250.6 146.3 242.4 167.5C236.2 183.5 223.6 192.4 206.5 193.6C189.2 194.7 175.8 187.2 166.9 172.3C165.8 170.5 165.4 170.2 163.7 171.6C145.8 185.8 125.7 189.8 104.2 181.9C82.5 174 69.4 157.9 65.4 135.2C59.4 101.6 84.2 69.2 118.1 65.7C133.2 64.1 147 67.6 159.6 76.2C160 76.5 160.4 76.7 160.9 77C160.8 77 160.9 77 161.1 77ZM125 89.4C104.9 89.5 88.8 105.6 88.8 125.7C88.8 145.6 105.2 161.7 125.3 161.6C145 161.5 161.3 145.2 161.2 125.6C161.2 105.5 144.9 89.3 125 89.4Z" fill="currentColor"/>
</svg>
