<svg id="svg-location" viewBox="0 0 250 250" fill="none" xmlns="http://www.w3.org/2000/svg">
<path d="M123 250C120.6 248.8 118.6 247.1 116.6 245.4C91.9001 222.7 69.9001 197.8 52.5001 169.3C42.3001 152.6 34.3001 134.9 30.0001 115.8C20.2001 70.9 42.9001 27.1 86.0001 8.00001C125.4 -9.29999 174 2.20001 200.9 35.5C221.3 60.8 226.5 89.2 219 120C214.1 140.2 204.7 158.6 193.2 176.1C176.5 201.7 156.2 224.5 133.5 245.3C131.6 247.1 129.6 248.8 127.1 249.9C125.7 250 124.4 250 123 250ZM179 95.4C180.3 67.2 156.9 43.1 126.8 41.8C97.6001 40.4 72.5001 63 71.0001 92C69.5001 120.4 93.1001 144.6 123.4 145.9C152.7 147.1 177.6 124.4 179 95.4Z" fill="currentColor"/>
</svg>
