<svg id="svg-phone" viewBox="0 0 250 250" fill="none" xmlns="http://www.w3.org/2000/svg">
<path d="M185.7 250C175.2 249 164.8 246.3 154.5 242.5C130.2 233.5 108.6 219.9 88.7 203.6C60.8 180.8 37.4 154 19.8 122.5C10.6 106 3.69997 88.6 0.499968 70C-0.500032 64.4 -3.17097e-05 59.5 3.09997 54.6C14.6 36.3 27.8 19.6 44.4 5.6C45.5 4.7 46.6 4 47.8 3.1C54.7 -1.8 60.3 -0.600005 67 4.7C67.9 5.4 68.7 6.2 69.3 7.1C80.8 23.3 91.8 39.7 100.2 57.7C101.5 60.5 102.5 63.3 103.3 66.2C104.6 70.9 103.6 75.1 100.6 78.9C96.9 83.6 92.1 87.1 87.6 90.9C81.7 96 81.6 96 84.7 103.1C97.7 133.4 119.5 154.4 150.2 166.5C153 167.6 154.8 167.5 156.8 165C160.3 160.5 164.2 156.3 168.1 152C173.5 146.1 179.9 144.6 187.5 147.5C196.3 150.9 204.5 155.4 212.5 160.2C222.7 166.3 232.6 172.9 242.3 179.8C246.2 182.6 248.6 186.4 249.8 191C250.5 193.7 250.1 196.1 248.9 198.6C247.4 201.6 245.6 204.3 243.4 206.8C228.9 223.1 212.3 236.8 193.4 247.7C190.1 249.7 188.4 250.1 185.7 250Z" fill="currentColor"/>
</svg>
