<svg id="svg-radio" viewBox="0 0 250 250" fill="none" xmlns="http://www.w3.org/2000/svg">
<path d="M69.3 246.1C61.2 245.9 54.1 243.2 48.3 237.4C35 224.2 21.7 211 8.69998 197.6C-3.10002 185.5 -2.80002 166.6 9.19998 154.5C28.1 135.4 47.1 116.4 66.1 97.4C67.6 95.9 68.4 94.5 68.6 92.3C69.8 82.1 73.8 73.1 81 65.7C93.1 53.3 105.3 41 117.7 28.8C127 19.7 140.6 19.9 149.9 29.1C161.5 40.6 173 52.2 184.5 63.9C186 65.4 186.9 65.8 188.4 64C191.4 60.7 194.6 57.6 197.7 54.5C201 51.2 205.1 51.1 208 54C210.9 56.9 210.7 61 207.4 64.3C204.1 67.7 200.8 71 197.5 74.2C196.5 75.2 196.3 75.8 197.4 76.9C199.8 79.1 202.1 81.5 204.4 83.9C205.5 85.2 206.2 85.2 207.4 83.9C217.4 73.8 227.4 63.7 237.4 53.6C239.2 51.8 241.3 50.5 243.9 50.9C246.5 51.3 248.4 52.8 249.4 55.3C250.4 57.9 249.9 60.4 248 62.4C244.8 65.7 241.6 69 238.3 72.2C231.2 79.3 224.2 86.4 217 93.5C215.9 94.6 215.7 95.3 216.8 96.6C224.9 105.9 224.9 118.8 216.3 127.7C204.1 140.3 191.7 152.7 179.2 164.9C171.6 172.3 162.3 176.3 151.7 177.3C150.2 177.4 149.4 178.3 148.4 179.2C129.4 198.3 110.4 217.4 91.4 236.5C85.5 242.8 78.1 245.9 69.3 246.1ZM134 54.8C131.3 54.8 129.6 55.8 128.1 57.3C119.2 66.3 110.2 75.2 101.3 84.2C97.8 87.7 97.8 91.5 101.3 95C117.6 111.4 134 127.8 150.3 144.2C153.8 147.7 157.6 147.7 161.1 144.2C170 135.3 179 126.3 187.9 117.3C191.3 113.9 191.4 110 188 106.6C171.6 90 155.1 73.5 138.6 57C137.3 55.7 135.6 54.8 134 54.8ZM134.8 151.4C134.8 149.3 134.1 147.7 132.8 146.3C121.6 135.1 110.5 123.8 99.2 112.6C97.4 110.8 95.1 110.2 92.6 110.9C87.2 112.5 85.9 118.6 90.1 122.9C100.8 133.8 111.6 144.6 122.4 155.4C122.9 155.9 123.3 156.3 123.9 156.7C126.2 158.3 128.6 158.5 131.1 157.2C133.5 155.9 134.6 153.9 134.8 151.4ZM68.2 162.4C68.1 161.3 68 160 67.2 159C64.8 156 62.2 153.1 59.1 150.9C56.4 148.9 52.7 149.7 50.4 152.3C48.3 154.7 48 158.4 50.2 160.9C52.4 163.4 54.8 165.8 57.3 168C59.4 169.8 61.9 169.9 64.4 168.7C66.9 167.4 68.1 165.3 68.2 162.4ZM89.6 197.2C91.8 197.1 93.9 195.9 95.1 193.3C96.4 190.7 96.1 188.1 94.2 185.9C92.2 183.6 89.9 181.3 87.6 179.3C85.5 177.5 83 177.3 80.5 178.4C78 179.6 76.6 181.6 76.6 184.4C76.5 188.9 84.6 197.2 89.6 197.2ZM48.5 181.9C48.4 180.7 48.3 179.4 47.5 178.4C45.1 175.4 42.6 172.6 39.5 170.5C36.9 168.7 33.4 169.3 31.2 171.6C29 173.9 28.4 177.4 30.2 180C32.3 183 35 185.6 38 187.8C40.1 189.4 42.6 189.3 45 188C47.4 186.6 48.4 184.5 48.5 181.9ZM76.3 210C76.4 208.8 76.2 207.6 75.5 206.7C73.1 203.4 70.4 200.5 67 198.3C64.4 196.6 60.8 197.4 58.7 199.7C56.5 202.1 56.3 205.7 58.3 208.3C60.4 210.9 62.8 213.3 65.4 215.4C67.6 217.1 70.1 217.2 72.6 215.9C75.1 214.7 76.2 212.7 76.3 210ZM115.3 170.8C115.4 169.3 115.1 168 114.1 166.9C111.9 164.2 109.4 161.6 106.7 159.4C104.1 157.3 100.4 157.8 98 160.2C95.6 162.7 95.2 166.5 97.4 169.1C99.5 171.6 101.9 173.9 104.3 176.1C106.4 177.9 108.9 178 111.4 176.9C114 175.7 115.2 173.6 115.3 170.8ZM80.9 149.7C83.3 149.5 85.5 148.5 86.7 145.9C88 143.3 87.9 140.7 86 138.5C83.9 136.1 81.7 133.8 79.2 131.7C77 129.8 74.4 129.7 71.8 131C69.3 132.3 68.1 134.4 68.2 137.2C68.3 141.5 76.4 149.6 80.9 149.7Z" fill="currentColor"/>
<path d="M7.8999 63.9C8.3999 34.4 30.7999 8.49999 59.0999 3.89999C62.2999 3.39999 65.5999 2.99999 68.8999 2.89999C73.5999 2.89999 76.7999 5.59999 76.7999 9.79999C76.7999 13.8 73.7999 16.6 69.1999 16.8C46.6999 17.4 28.0999 32.5 22.8999 54.4C22.0999 57.6 21.6999 60.9 21.6999 64.2C21.5999 69.1 18.7999 72.3 14.5999 72.2C10.4999 72 7.8999 68.8 7.8999 64C7.8999 63.7 7.8999 63.5 7.8999 63.9Z" fill="currentColor"/>
<path d="M182.1 238.2C181.5 238.2 181 238.2 180.4 238.2C176.3 238.1 173.3 235.1 173.3 231.3C173.3 227.5 176.2 224.5 180.2 224.4C186.9 224.3 193.4 223.2 199.5 220.2C217.7 211.5 227.3 196.9 228.3 176.6C228.6 170.9 233.1 167.5 237.9 169.5C240.6 170.7 242.2 173.2 242.1 176.6C241.2 199.5 231.1 217.2 211.7 229.3C202.8 235 192.1 238 182.1 238.2Z" fill="currentColor"/>
<path d="M35.5001 64C35.8001 46.1 51.3001 30.8 69.1001 30.7C73.5001 30.7 76.6001 33.4 76.8001 37.3C77.0001 41.3 74.0001 44.3 69.5001 44.5C58.3001 45 49.8001 53.4 49.3001 64.4C49.1001 69.2 46.2001 72.2 42.2001 72.1C38.0001 72 35.4001 68.7 35.5001 64Z" fill="currentColor"/>
<path d="M214.5 177C214.2 194.9 198.9 210.3 181.1 210.5C176.6 210.6 173.4 207.8 173.3 203.8C173.2 199.8 176.2 196.9 180.7 196.6C192 196 200.3 187.7 200.8 176.3C201 171.8 204 168.8 208 168.9C212 169.2 214.6 172.4 214.5 177Z" fill="currentColor"/>
<path d="M173.7 112C173.4 112.3 173.2 112.7 172.9 113C167.5 118.4 162.1 123.8 156.8 129.3C155.9 130.2 155.4 130 154.6 129.2C141.9 116.4 129.3 103.7 116.5 91C115.4 90 115.7 89.4 116.6 88.5C121.8 83.4 126.9 78.2 132.1 73C133.1 72 133.7 71.8 134.8 72.9C147.4 85.6 160 98.3 172.6 111C173 111.2 173.3 111.5 173.7 112Z" fill="currentColor"/>
</svg>
