<svg id="svg-user" viewBox="0 0 250 250" fill="none" xmlns="http://www.w3.org/2000/svg">
<path d="M117.2 0C122.4 0 127.6 0 132.8 0C133.4 0.1 134 0.3 134.7 0.4C141.2 0.8 147.6 1.9 154 3.4C202.1 14.5 240 54.8 248.2 103.5C249 108.1 249.5 112.7 250.1 117.2C250.1 122.4 250.1 127.6 250.1 132.8C250 133.4 249.7 134.1 249.7 134.7C249.3 140.5 248.4 146.3 247.2 152.1C237.1 200.5 195.7 240.2 146.9 248.1C142.3 248.9 137.6 249.4 132.9 250C127.7 250 122.5 250 117.3 250C116.8 249.9 116.2 249.6 115.7 249.6C109.9 249.2 104.2 248.3 98.6 247.1C50 237.3 9.8 195.7 2 147C1.2 142.3 0.7 137.5 0 132.8C0 127.6 0 122.4 0 117.2C0.9 111.7 1.3 106.1 2.4 100.6C11.8 50.9 53.3 10.2 103.2 1.9C107.8 1.2 112.5 0.6 117.2 0ZM200 205.6C230.3 178.2 245 131.4 228.4 86.7C211.6 41.2 165.9 10.1 114 15.2C66.4 19.8 26.6 55.2 16.9 102.8C12.1 126.1 14.6 148.6 24.4 170.3C30.5 183.8 38.9 195.5 49.9 205.7C57.4 181.8 72.4 165 95.2 154.9C81 144.9 72.5 131.7 70.9 114.5C69.3 97.4 74.8 82.5 87 70.4C108 49.6 142.1 49.7 163.1 70.6C173.6 81 179.2 93.8 179.3 108.6C179.4 128.2 170.8 143.4 154.9 154.8C177.6 165 192.6 181.8 200 205.6ZM121.1 235.3C146 235.4 166.9 229.2 184.9 217.7C186.9 216.4 187.2 215.2 186.7 213C180.2 185.6 157.9 166.3 129.8 164C98.5 161.4 69.7 182.8 63.1 213.6C62.7 215.5 63.2 216.5 64.8 217.5C83 229.2 103 235.1 121.1 235.3ZM85.3 109.1C85.2 131 102.9 148.9 124.8 149C146.8 149.1 164.6 131.5 164.7 109.5C164.8 87.6 147.2 69.8 125.2 69.6C103.3 69.4 85.4 87.2 85.3 109.1Z" fill="currentColor"/>
</svg>
