<svg id="svg-youtube" viewBox="0 0 250 250" fill="none" xmlns="http://www.w3.org/2000/svg">
<path d="M0 136.7C0 128.4 0 120.2 0 111.9C0.1 111.1 0.3 110.4 0.4 109.6C0.7 101.3 1.5 93 2.5 84.7C3.3 78.4 4 72 5.7 65.8C8.9 54.1 19.8 45.8 33.1 44C49.3 41.9 65.5 41.3 81.8 40.8C115.1 39.8 148.3 39.9 181.6 41.3C194.4 41.8 207.1 42.4 219.7 44.5C232.2 46.6 243.1 56.5 245 67.6C246.3 74.8 247.3 82.1 248.1 89.4C251.2 119.6 250.6 149.6 245.5 179.6C243.1 193.8 233.6 203.1 218.8 205.6C206.6 207.7 194.2 208.2 181.9 208.7C159.6 209.6 137.3 210 115 209.8C87.8 209.5 60.5 209.3 33.4 206C18.7 204.2 7.3 194.5 5 181.5C3 170.6 1.7 159.6 0.9 148.6C0.6 144.6 0.7 140.6 0 136.7ZM100.2 161.4C122 149.3 143.5 137.3 165.3 125.1C143.4 112.9 121.9 100.9 100.2 88.7C100.2 113.1 100.2 137 100.2 161.4Z" fill="currentColor"/>
</svg>
