<svg id="svg-achievement" viewBox="0 0 250 250" fill="none" xmlns="http://www.w3.org/2000/svg">
<path d="M0 127.8C0 125.9 0 124.1 0 122.2C0.2 121.8 0.4 121.4 0.5 121C1.5 115.1 3.7 109.7 7.3 105C12.6 98.2 14 90.7 13.2 82.2C12.1 70.7 15.4 60.7 25.2 53.6C27.8 51.7 30.4 50 33.4 48.8C40.8 45.9 46 40.7 48.8 33.3C48.9 33 49 32.8 49.1 32.5C56.4 18 66.3 11.7 83.3 13.3C91.3 14 98.4 12.5 104.8 7.60001C109.6 3.90001 115.1 1.70001 121 0.600006C121.4 0.500006 121.8 0.300006 122.2 0.100006C124.1 0.100006 125.9 0.100006 127.8 0.100006C134.6 1.80001 141.1 4.10001 146.7 8.50001C152.7 13.2 159.6 14 167 13.4C183.5 12 193.5 17.6 200.4 32C204.3 40.3 209.8 46 218.2 49.7C228.7 54.3 235.4 62.4 237 74.2C237.6 78.3 237.5 82.4 237 86.4C236.4 91.7 237 96.7 240.1 101C244.8 107.6 248.6 114.7 250.1 122.8C250.1 124.3 250.1 125.8 250.1 127.3C248.6 133.4 246.9 139.6 242.7 144.5C237.2 151.1 235.8 158.5 236.7 166.9C238.4 183.4 232.3 193.8 218.3 200.4C209.9 204.4 204.1 209.8 200.4 218.3C195.7 228.7 187.8 235.6 176 237.1C171.9 237.6 167.8 237.6 163.8 237.1C158.4 236.4 153.4 237.1 148.9 240.3C142.4 245 135.4 248.7 127.3 250.1C125.8 250.1 124.3 250.1 122.8 250.1C122.3 249.6 121.6 249.6 121 249.5C115.4 248.4 110 246.4 105.6 242.7C99 237.3 91.6 235.9 83.2 236.7C66.5 238.4 56.4 232.4 49.6 218.1C45.7 209.8 40.1 204.3 31.8 200.4C17.9 193.8 11.6 183.4 13.3 166.7C14.1 158.7 12.5 151.6 7.6 145.3C3.9 140.5 1.7 135.1 0.6 129.1C0.4 128.6 0.2 128.2 0 127.8ZM125 44.6C80.6 44.6 44.6 80.6 44.6 124.9C44.6 169.1 80.6 205.3 124.6 205.3C169.3 205.3 205.3 169.4 205.3 124.7C205.3 80.7 169.2 44.6 125 44.6Z" fill="currentColor"/>
<path d="M125.9 71.4C128.9 71.6 131.6 73.4 133.2 76.7C136.4 83.2 139.7 89.7 142.8 96.2C143.6 97.8 144.4 98.7 146.4 99C153.9 99.9 161.3 101 168.7 102.1C172.1 102.6 174.5 104.6 175.6 107.8C176.9 111.4 176 114.6 173.4 117.3C168.1 122.5 162.8 127.7 157.4 132.8C156.1 134 155.8 135.1 156.1 136.9C157.5 144.1 158.6 151.4 159.8 158.6C160.5 162.3 159.4 165.5 156.4 167.7C153.4 170 150.1 170.2 146.7 168.5C140.1 165.1 133.5 161.6 127 158.1C125.5 157.3 124.4 157.3 122.9 158.1C116.6 161.5 110.2 164.7 104 168.1C100.5 170 97.1 170.4 93.8 168.1C90.5 165.8 89.6 162.5 90.3 158.5C91.6 151.3 92.7 144 94 136.8C94.3 135.2 93.9 134.2 92.8 133.2C87.6 128.3 82.5 123.2 77.4 118.3C74.4 115.5 73 112.2 74.3 108.3C75.6 104.4 78.6 102.6 82.7 102.1C89.5 101.2 96.3 100.1 103.1 99.2C105.1 98.9 106.3 98.2 107.2 96.2C110.2 89.7 113.4 83.4 116.6 77C118.6 73.2 121.4 71.4 125.9 71.4Z" fill="currentColor"/>
</svg>
