<svg id="svg-insta" viewBox="0 0 250 250" fill="none" xmlns="http://www.w3.org/2000/svg">
<path d="M192.7 250C147.5 250 102.3 250 57.1 250C56.4 249.8 55.7 249.6 55 249.5C41.6 247.9 29.8 242.7 19.9 233.5C6.5 221 0 205.3 0 186.9C0 145.7 0 104.4 0 63.2C0 60.6 0.2 58 0.4 55.4C3.4 24.8 29.5 0.299999 60.4 0.0999989C103.3 -0.200001 146.2 -0.100001 189.1 0.0999989C215 0.199999 238.1 17.4 246.3 42C248 47 248.7 52.1 249.6 57.2C249.6 102.4 249.6 147.7 249.6 192.9C249.4 193.6 249.2 194.3 249.1 195C246.4 219.9 229 240.4 204.9 247.5C201 248.7 196.8 249.1 192.7 250ZM224.8 125.1C224.8 104.3 224.9 83.5 224.8 62.6C224.7 41.3 208.9 25.2 187.8 25.1C145.9 24.9 103.9 24.9 62 25.1C41.1 25.2 25.1 41.2 25 62C24.8 104 24.8 145.9 25 187.9C25.1 208.8 41 224.8 61.8 224.9C103.8 225.1 145.8 225 187.9 224.9C194.2 224.9 200.3 223.4 205.9 220.2C218.6 212.9 224.7 201.6 224.8 187.2C224.9 166.6 224.8 145.8 224.8 125.1Z" fill="currentColor"/>
<path d="M187.3 125C187.3 160 159.8 187.6 124.8 187.5C89.8999 187.5 62.4999 160 62.3999 125.1C62.3999 90.1 89.8999 62.5 124.9 62.6C159.8 62.6 187.3 90.1 187.3 125ZM162.4 125.1C162.4 104 146.2 87.6 125 87.6C103.8 87.5 87.3999 103.9 87.3999 125.1C87.3999 146.2 103.7 162.6 124.7 162.6C145.9 162.6 162.3 146.3 162.4 125.1Z" fill="currentColor"/>
<path d="M187.3 75.1C180.5 75.1 174.9 69.6 174.8 62.8C174.7 55.9 180.3 50.2 187.3 50.1C194.2 50.1 199.9 55.8 199.8 62.7C199.7 69.5 194.2 75 187.3 75.1Z" fill="currentColor"/>
</svg>
