<svg width="20" height="20" viewBox="0 0 20 20" fill="none" xmlns="http://www.w3.org/2000/svg">
<path fill-rule="evenodd" clip-rule="evenodd" d="M2.54615 1.31492C3.79462 0.0718117 5.85023 0.293088 6.8956 1.69144L8.18885 3.42133C9.03945 4.55914 8.96438 6.14937 7.95471 7.15471L7.7098 7.39855C7.69914 7.42965 7.67319 7.52743 7.70201 7.71327C7.76682 8.13178 8.11582 9.01952 9.58085 10.4783C11.0454 11.9365 11.9381 12.2857 12.362 12.3508C12.5541 12.3803 12.6546 12.3528 12.6857 12.3419L13.1041 11.9252C14.0017 11.0315 15.3809 10.8644 16.4923 11.4694L18.4516 12.5361C20.1293 13.4494 20.5533 15.7332 19.1786 17.1019L17.7218 18.5525C17.2628 19.0095 16.6455 19.3906 15.8921 19.461C14.0368 19.6342 9.71079 19.4132 5.16536 14.8872C0.921654 10.6617 0.107292 6.9768 0.00425331 5.16123C-0.0478455 4.24318 0.385365 3.46646 0.936423 2.91776L2.54615 1.31492ZM5.66411 2.61466C5.14453 1.91964 4.17611 1.86438 3.63083 2.40732L2.0211 4.01016C1.68275 4.34707 1.51995 4.71837 1.54012 5.07383C1.62199 6.51636 2.27969 9.84143 6.25004 13.7948C10.4154 17.9423 14.2625 18.066 15.7493 17.9272C16.0531 17.8988 16.3552 17.7408 16.6372 17.4601L18.094 16.0094C18.6862 15.4198 18.5556 14.3461 17.7169 13.8895L15.7575 12.8229C15.2164 12.5284 14.5825 12.6255 14.1887 13.0177L13.7217 13.4828L13.1794 12.9365C13.7217 13.4828 13.721 13.4835 13.7202 13.4842L13.7187 13.4857L13.7155 13.4887L13.7089 13.4952L13.6939 13.5092C13.6831 13.519 13.6707 13.5298 13.6569 13.5414C13.629 13.5645 13.5947 13.5906 13.5538 13.6181C13.4716 13.6732 13.3632 13.7332 13.2269 13.7839C12.9492 13.8875 12.5829 13.9432 12.1288 13.8735C11.2398 13.737 10.0622 13.13 8.49621 11.5707C6.93068 10.0119 6.31948 8.83809 6.18181 7.94944C6.11142 7.49504 6.16756 7.12809 6.27231 6.84971C6.32364 6.71329 6.38412 6.6048 6.43964 6.52276C6.46733 6.48184 6.49367 6.44763 6.51692 6.41984C6.52855 6.40594 6.53942 6.39364 6.54931 6.38289L6.56339 6.36791L6.56984 6.36128L6.57291 6.35817L6.57441 6.35667C6.57514 6.35594 6.57587 6.35521 7.11826 6.9014L6.57587 6.35521L6.87002 6.06232C7.30963 5.62464 7.37116 4.89808 6.95734 4.34456L5.66411 2.61466Z" fill="black"/>
</svg>
