<svg id="svg-phone-outline-2" viewBox="0 0 250 250" fill="none" xmlns="http://www.w3.org/2000/svg">
<path d="M132.3 250C127.4 250 122.5 250 117.7 250C114.4 249.6 111.1 249.3 107.8 248.8C83.2 245.3 61.4 235.5 42.7 219C20.7 199.6 7 175.5 1.9 146.5C1.1 141.8 0.9 137 0 132.3C0 127.4 0 122.5 0 117.6C0.2 116.8 0.4 115.9 0.4 115C0.7 110.4 1.3 105.9 2.2 101.5C7 76.7 18.3 55.2 36.1 37.2C54.8 18.3 77.2 6.5 103.4 1.9C108.1 1.1 112.9 0.9 117.6 0C122.5 0 127.4 0 132.2 0C135.5 0.4 138.8 0.7 142.1 1.2C166.7 4.7 188.5 14.5 207.2 31C229.2 50.4 242.9 74.6 248 103.5C248.8 108.2 249 113 249.9 117.7C249.9 122.6 249.9 127.5 249.9 132.4C249.7 133.3 249.5 134.1 249.5 135C249.2 139.6 248.6 144.1 247.7 148.5C242.9 173.4 231.6 194.9 213.8 212.9C195.1 231.8 172.7 243.6 146.5 248.2C141.8 249 137 249.1 132.3 250ZM124.9 235.3C185.7 235.4 235.3 185.8 235.3 125C235.3 64.3 185.9 14.8 125.2 14.6C64.4 14.5 14.8 64 14.6 124.9C14.5 185.6 64.1 235.3 124.9 235.3Z" fill="currentColor"/>
<path d="M155.8 199.3C146.7 199.2 137.9 197.2 129.6 193.5C98.2 179.7 74.8 157.2 59.3 126.7C53.6 115.5 50.1 103.6 50.9 90.8002C51.4 81.7002 54.8 73.8002 61.4 67.3002C65.1 63.7002 68.7 59.9002 72.5 56.3002C81.1 47.9002 92.7 47.4002 101.7 55.3002C107.1 60.1002 112.3 65.2002 117 70.7002C124.9 79.7002 124.3 91.3002 115.9 99.9002C114 101.8 112.1 103.7 110.2 105.6C109.4 106.4 109 106.9 110 107.9C120.7 118.6 131.4 129.3 142.1 140C143 140.9 143.6 140.9 144.4 140C146.3 138 148.3 136.1 150.3 134.1C158.9 125.8 170.4 125.2 179.3 133.1C184.8 137.9 190 143.1 194.8 148.6C202.6 157.5 202.1 169.1 193.8 177.6C189.8 181.7 185.8 185.7 181.7 189.7C174.5 196.7 165.6 199.2 155.8 199.3ZM155.7 184.6C161.8 184.7 167.3 183.2 171.7 178.8C175.6 175 179.4 171.1 183.3 167.2C186.3 164.1 186.3 160.6 183.3 157.5C179.1 153.2 174.8 149 170.5 144.7C167 141.2 163.7 141.2 160.1 144.7C156.4 148.4 152.7 152.1 149.1 155.7C145.2 159.6 141.2 159.6 137.4 155.8C122.9 141.4 108.5 127 94.1 112.5C90.3 108.6 90.3 104.7 94.2 100.8C97.9 97.1002 101.6 93.4002 105.2 89.8002C108.7 86.3002 108.7 82.9002 105.3 79.4002C101.2 75.2002 97 71.1002 92.9 67.0002C89.4 63.5002 86 63.5002 82.5 66.9002C78.9 70.5002 75.3 74.2002 71.6 77.7002C67.5 81.7002 65.8 86.6002 65.5 92.2002C65.1 102.3 68.1 111.7 72.6 120.5C86.3 147.1 106.7 166.8 133.9 179.3C140.7 182.6 148 184.6 155.7 184.6Z" fill="currentColor"/>
</svg>
