<svg id="svg-phone-outline" viewBox="0 0 250 250" fill="none" xmlns="http://www.w3.org/2000/svg">
<path d="M185.6 250C175.3 249.1 164.8 246.3 154.6 242.5C130.3 233.5 108.7 219.9 88.8001 203.6C60.8001 180.7 37.4001 153.9 19.7001 122.3C10.5001 105.9 3.70011 88.7 0.400115 70.1C-0.599885 64.5 -0.099885 59.4 3.00011 54.4C14.5001 36.1 27.7001 19.4 44.4001 5.50001C45.5001 4.60001 46.7001 3.90001 47.8001 3.10001C54.5001 -1.69999 60.0001 -0.599993 66.6001 4.40001C67.8001 5.30001 68.8001 6.40001 69.6001 7.60001C80.5001 23 90.9001 38.7 99.2001 55.7C100.9 59.1 102.3 62.7 103.2 66.4C104.4 70.9 103.5 75 100.7 78.7C97.9001 82.4 94.3001 85.3 90.8001 88.3C88.5001 90.3 86.3001 92.4 83.8001 94.2C82.3001 95.4 81.9001 96.5 82.6001 98.4C95.2001 131.6 118.2 154.6 151.4 167.2C153.3 167.9 154.5 167.6 155.8 166C159.6 161.4 163.6 156.9 167.6 152.4C173.1 146.3 179.6 144.7 187.4 147.8C195.7 151.1 203.4 155.3 211.1 159.7C221.4 165.8 231.4 172.4 241.2 179.3C245.3 182.2 248.2 185.9 249.6 190.9C250.4 193.8 250 196.5 248.6 199.2C247.1 202.1 245.3 204.7 243.2 207.1C228.8 223.3 212.3 236.8 193.6 247.7C191.3 249 189 250.2 185.6 250ZM185.7 233.3C186.5 233.3 186.5 233.3 188.2 232.2C203.9 222 218.1 210.1 230.7 196.4C232.9 194 232.9 194 230.3 192.1C215.4 181.3 199.5 171.9 182.9 164C181.1 163.1 180.1 163.3 178.8 164.8C174.1 170.2 169.7 175.7 164.8 181C160.8 185.3 156.6 187 151.1 184.5C150.2 184.1 149.3 184 148.4 183.7C119.3 173.7 96.5001 155.7 79.9001 130C72.7001 118.8 66.9001 106.9 64.3001 93.6C64.0001 92.2 64.2001 91.1 65.1001 90C67.5001 86.9 70.3001 84.1 73.1001 81.5C77.2001 77.8 81.8001 74.5 85.8001 70.6C86.7001 69.7 87.0001 69 86.4001 67.7C78.3001 50.6 68.7001 34.5 57.6001 19.2C56.5001 17.7 55.8001 17.3 54.1001 18.8C40.9001 31.1 29.3001 44.8 19.1001 59.7C17.0001 62.7 16.6001 65.5 17.3001 68.9C20.0001 84 25.6001 98.1 32.9001 111.6C51.8001 146.3 77.8001 174.9 109.4 198.5C126.8 211.5 145.5 222.2 166.3 228.9C172.7 230.9 179.1 232.5 185.7 233.3Z" fill="currentColor"/>
</svg>
