<svg id="svg-swiper-arrow" viewBox="0 0 250 250" fill="none" xmlns="http://www.w3.org/2000/svg">
<path d="M49.9002 110.7C51.5002 111.5 52.7002 111.3 53.8002 111.3C112.8 111.3 171.7 111.3 230.7 111.3C232.7 111.3 234.8 111.3 236.7 111.9C242.8 113.6 246.8 119.5 246.5 126.2C246.1 132.6 241.4 138 235.1 138.9C233.5 139.1 231.9 139.2 230.4 139.2C171.5 139.2 112.6 139.2 53.8002 139.2C52.7002 139.2 51.6002 138.9 50.3002 139.6C51.1002 140.4 51.7002 141.2 52.5002 142C79.7002 169.9 106.8 197.9 134 225.8C139.1 231.1 140 238.1 136.4 243.8C132 250.7 122.8 252.2 116.6 246.9C116.1 246.5 115.7 246.1 115.2 245.6C79.2002 208.8 43.5002 172.1 7.80023 135.3C3.80023 131.1 2.70023 126.2 4.30023 120.6C5.00023 118.4 6.30023 116.6 7.90023 115C43.7002 78.0999 79.4002 41.2999 115.3 4.49989C121.1 -1.50011 129.4 -1.50011 134.8 4.19989C140.2 9.89989 140 18.2999 134.2 24.2999C107 52.2999 79.8002 80.2999 52.5002 108.3C51.8002 109.1 50.9002 109.7 49.9002 110.7Z" fill="currentColor"/>
</svg>
