<svg id="svg-warranty" viewBox="0 0 250 250" fill="none" xmlns="http://www.w3.org/2000/svg">
<path d="M104.5 0C118.2 0 131.8 0 145.5 0C145.5 0.3 145.4 0.7 145.5 1C147.7 8.6 149.9 16.1 152.1 23.7C152.4 24.8 153.1 25.2 154.1 25.5C161.2 27.5 168.1 30.4 174.5 34C175.8 34.7 176.8 34.7 178.1 34C184.5 30.4 191.1 26.9 197.5 23.3C198.7 22.6 199.4 22.7 200.4 23.7C209 32.4 217.7 41.1 226.5 49.8C227.5 50.8 227.6 51.5 226.9 52.7C223.3 59.1 219.8 65.7 216.2 72.1C215.5 73.4 215.5 74.4 216.2 75.7C219.7 82 222.5 88.7 224.5 95.7C224.9 97.2 225.6 98 227.2 98.4C234.2 100.3 241.1 102.4 248.1 104.4C249.7 104.8 250.3 105.5 250.2 107.2C250.1 119.2 250.1 131.3 250.2 143.3C250.2 145 249.6 145.7 248.1 146.1C241.1 148 234.2 150.1 227.2 152.1C225.7 152.5 225 153.3 224.5 154.8C222.5 161.8 219.7 168.4 216.2 174.8C215.5 176.1 215.5 177.1 216.2 178.4C219.8 184.8 223.3 191.4 226.9 197.8C227.6 199 227.5 199.7 226.5 200.7C217.8 209.3 209.1 218 200.4 226.8C199.4 227.8 198.7 227.8 197.5 227.2C191.1 223.6 184.5 220.1 178.1 216.5C176.8 215.8 175.8 215.8 174.5 216.5C168.2 220 161.7 222.8 154.8 224.7C153 225.2 152.2 226.1 151.8 227.9C149.9 234.8 147.8 241.6 145.9 248.5C145.5 249.9 144.9 250.4 143.4 250.4C131.2 250.3 119 250.3 106.8 250.4C105.3 250.4 104.7 249.9 104.3 248.5C102.4 241.5 100.2 234.6 98.3 227.7C97.8 226 97 225.2 95.3 224.7C88.4 222.8 81.8 220 75.6 216.5C74.3 215.8 73.3 215.8 72 216.5C65.6 220.1 59 223.6 52.6 227.2C51.4 227.9 50.7 227.8 49.7 226.8C41.1 218.1 32.4 209.4 23.6 200.7C22.6 199.7 22.5 199 23.2 197.8C26.8 191.4 30.3 184.8 33.9 178.4C34.6 177.1 34.7 176.2 33.9 174.8C30.3 168.4 27.5 161.6 25.5 154.6C25.1 153.1 24.3 152.5 22.9 152.1C19.1 151.1 15.4 149.8 11.7 148.9C7.8 147.9 4 146.3 0 145.8C0 132.1 0 118.5 0 104.8C0.3 104.8 0.7 104.9 1 104.8C8.6 102.6 16.1 100.4 23.7 98.3C25 97.9 25.2 97.1 25.5 96C27.6 89 30.3 82.2 33.9 75.8C34.6 74.5 34.6 73.5 33.9 72.2C30.3 65.8 26.9 59.4 23.3 53C22.5 51.6 22.6 50.8 23.7 49.7C32.3 41.2 40.9 32.6 49.4 24C50.5 22.9 51.3 22.7 52.7 23.5C59.1 27.1 65.6 30.6 72.1 34.2C73.2 34.8 74.1 34.9 75.2 34.2C81.6 30.5 88.5 27.7 95.6 25.7C97.1 25.3 97.7 24.5 98.1 23.1C98.9 20.1 99.8 17.2 100.6 14.2C102 9.4 103.7 4.8 104.5 0ZM125.1 49.3C83.4 49.3 49.5 83.1 49.4 124.8C49.3 166.6 83.3 200.6 125 200.6C166.7 200.6 200.6 166.8 200.7 125.1C200.8 83.3 166.9 49.3 125.1 49.3Z" fill="currentColor"/>
<path d="M64 124.8C64.1 91.2 91.4 63.9 125.1 63.9C158.8 63.9 186.2 91.4 186.1 125.2C186 158.8 158.5 186.1 124.9 186C91.2 185.9 64 158.5 64 124.8ZM157.7 112C157.3 111.5 156.9 111.1 156.5 110.7C154.1 108.3 151.6 106 149.3 103.4C147.9 101.9 147.2 101.9 145.7 103.4C136.5 112.7 127.2 121.9 118 131.2C116.7 132.5 116 132.5 114.8 131.2C111.4 127.6 107.8 124.2 104.3 120.6C103.4 119.7 102.9 119.6 102 120.5C99.4 123.3 96.7 126 93.9 128.6C93 129.5 93 130 93.9 130.9C101.1 138 108.2 145.1 115.3 152.3C116.1 153.1 116.5 153.3 117.4 152.4C130.5 139.3 143.6 126.2 156.7 113.1C157.1 112.8 157.4 112.4 157.7 112Z" fill="currentColor"/>
</svg>
